<svg width="60" height="60" viewBox="0 0 60 60" fill="none" xmlns="http://www.w3.org/2000/svg">
<path d="M32.1058 20.0211L32.2328 7.44971L25.8201 13.8836L28.1481 20.0211" fill="#41ADE3"/>
<path d="M44.4021 12.9312C44.4021 17.4603 40.7408 21.1217 36.2116 21.1217C31.6825 21.1217 28.0212 17.4603 28.0212 12.9312C28.0212 8.4021 31.6825 4.74072 36.2116 4.74072C40.7408 4.74072 44.4021 8.42326 44.4021 12.9312Z" fill="#283270"/>
<path d="M6.03175 55.1111L27.6191 33.5026L49.2064 55.0899L6.03175 55.1111Z" fill="#283270"/>
<path d="M23.1193 29.0149L15.9211 36.2131L20.4256 40.7176L27.6238 33.5194L23.1193 29.0149Z" fill="#283270"/>
<path d="M31.2169 37.1005C27.2381 41.0794 27.2381 47.5344 31.2169 51.5132L38.4127 44.3175L31.2169 37.1005Z" fill="#41ADE3"/>
<path d="M55.09 28.6137V27.4074C55.09 25.7989 53.7778 24.4868 52.1693 24.4868H42.1164C40.5079 24.4868 39.1958 25.7989 39.1958 27.4074V35.0053V35.8518L34.5609 40.4868L38.3915 44.3174L54.0741 28.6349L55.09 28.6137Z" fill="#41ADE3"/>
<path d="M46.836 35.873L40.5714 42.1376L37.9259 44.8042L41.2698 48.1482L43.9153 45.4815L49.3122 45.5027L55.0899 39.7249V28.6138H54.0952L50.4762 32.2328L46.836 35.873Z" fill="#283270"/>
<path d="M28.1481 20.0212L10.836 28.3386V31.1111L15.9153 36.2117L32.1058 20.0212H28.1481Z" fill="#41ADE3"/>
<path d="M46.8571 35.8518C45.8624 34.8571 45.8624 33.2275 46.8571 32.2328C47.8519 31.2381 49.4815 31.2381 50.4762 32.2328" fill="#283270"/>
</svg>
